<?xml version="1.0" encoding="UTF-8"?>
<svg id="Layer_1" data-name="Layer 1" xmlns="http://www.w3.org/2000/svg" viewBox="0 0 172.63 235.91">
  <defs>
    <style>
      .cls-1 {
        stroke-width: .56px;
      }

      .cls-1, .cls-2, .cls-3, .cls-4 {
        fill: none;
        stroke: #231f20;
        stroke-miterlimit: 10;
      }

      .cls-5 {
        letter-spacing: -.08em;
      }

      .cls-6 {
        fill: #231f20;
        font-family: DevanagariSangamMN, 'Devanagari Sangam MN';
        font-size: 16.28px;
      }

      .cls-2 {
        stroke-width: .59px;
      }

      .cls-3 {
        stroke-width: .58px;
      }

      .cls-4 {
        stroke-width: .63px;
      }

      .cls-7 {
        fill: #dfcce4;
        stroke-width: 0px;
      }
    </style>
  </defs>
  <g>
    <path class="cls-7" d="m53.75,53.67c.05,1.48-.15,3.06-1,4.31-.88,1.29-2.31,1.95-3.8,2.2-.53.09-1.05.13-1.58.14-6.72-1.78-4.71,3.66-13.28,1.52-4.04-.49-4.24-1.93-6.81-1.52-2.48.4-3.04,1.86-5.11,1.53-5.34-2.45-2.67-2.62-9.19-.77-2.91.43-3.63-1.73-7.15-1.14-8.79,4.23-6.81-13.21,3.64-27,1.78-2.54,2.62-3.12,4.38-6.45,1.42-2.68-.89-5.65-2.09-9.58-.92-3-1.43-6.15-1.1-9.3.25-2.41,1.06-5.28,3.36-6.45,3.93-2.02,7.47,2.51,11.41,2.11,1.35-.14,2.57-.83,3.82-1.36,2.98-1.28,8.02-2.97,10.56.14.69.84.98,1.94,1.08,3.02.13,1.35,0,2.71-.18,4.05-.31,2.26-.87,4.47-1.17,6.73-.3,2.21-.88,4.35-.72,6.62.1,1.38.44,2.77,1.11,3.98.32.57.61,1.07,1.03,1.57.5.58.99,1.18,1.46,1.78,1.38,1.77,2.67,3.62,3.88,5.51,1.3,2.04,2.52,4.14,3.61,6.3,1.04,2.05,1.97,4.17,2.7,6.36.61,1.84,1.1,3.76,1.16,5.71Z"/>
    <g>
      <path class="cls-1" d="m13.85,26.49c-1.77,3.32-2.61,3.91-4.38,6.45-10.45,13.79-12.44,31.23-3.64,27,3.53-.59,4.24,1.57,7.15,1.14,6.52-1.85,3.85-1.68,9.19.77,2.07.33,2.63-1.13,5.11-1.53,2.57-.41,2.78,1.03,6.81,1.52,8.57,2.14,6.56-3.3,13.28-1.52.53,0,1.06-.05,1.58-.14,1.48-.24,2.92-.9,3.8-2.2.85-1.25,1.06-2.83,1-4.31-.07-1.95-.56-3.87-1.16-5.71-.72-2.19-1.66-4.31-2.7-6.36-1.09-2.16-2.3-4.26-3.61-6.3-1.21-1.89-2.49-3.74-3.88-5.51-.47-.6-.96-1.19-1.46-1.78-.42-.5-.71-1-1.03-1.57-.67-1.22-1.01-2.6-1.11-3.98-.16-2.27.43-4.41.72-6.62.3-2.26.86-4.48,1.17-6.73.19-1.34.31-2.7.18-4.05-.11-1.07-.39-2.17-1.08-3.02-2.54-3.12-7.58-1.42-10.56-.14-1.24.53-2.47,1.22-3.82,1.36-3.95.4-7.48-4.13-11.41-2.11-2.29,1.18-3.11,4.04-3.36,6.45-.33,3.15.18,6.3,1.1,9.3,1.21,3.92,3.51,6.9,2.09,9.58Z"/>
      <path class="cls-4" d="m18.91,30.86c-3.81,2.98-9.15,16.5-8.43,22.05"/>
      <path class="cls-1" d="m32.3,30.1c5.01,3.83,9.26,16.64,7.86,22.91"/>
      <path class="cls-3" d="m25,33.68c-1.26,2.33-.87,8.95.28,10.7"/>
    </g>
  </g>
  <path class="cls-2" d="m49.52,10.57v.07"/>
  <text class="cls-6" transform="translate(63.61 16.29) scale(.98 1)"><tspan x="0" y="0">THE</tspan><tspan class="cls-5" x="0" y="19.54">F</tspan><tspan x="8.59" y="19.54">ASHION</tspan><tspan x="0" y="39.08">LIBRARY</tspan></text>
</svg>