<?xml version="1.0" encoding="UTF-8"?>
<svg id="Layer_2" data-name="Layer 2" xmlns="http://www.w3.org/2000/svg" viewBox="0 0 208.62 77.64">
  <defs>
    <style>
      .cls-1 {
        stroke-width: .14px;
      }

      .cls-1, .cls-2, .cls-3, .cls-4, .cls-5, .cls-6, .cls-7, .cls-8, .cls-9, .cls-10, .cls-11, .cls-12, .cls-13, .cls-14, .cls-15, .cls-16 {
        stroke: #231f20;
        stroke-miterlimit: 10;
      }

      .cls-1, .cls-2, .cls-3, .cls-4, .cls-5, .cls-6, .cls-8, .cls-10, .cls-11, .cls-12, .cls-14, .cls-15, .cls-16 {
        fill: none;
      }

      .cls-2 {
        stroke-width: .14px;
      }

      .cls-3 {
        stroke-width: .28px;
      }

      .cls-4 {
        stroke-width: .14px;
      }

      .cls-5 {
        stroke-width: .28px;
      }

      .cls-6 {
        stroke-width: .1px;
      }

      .cls-17 {
        fill: #182953;
        font-family: BMDoHyeon-OTF-KSCpc-EUC-H, 'BM Dohyeon';
        font-size: 13px;
      }

      .cls-7 {
        fill: #fff;
        stroke-width: .47px;
      }

      .cls-8 {
        stroke-width: .09px;
      }

      .cls-9 {
        fill: #c8eaf3;
        stroke-width: .5px;
      }

      .cls-10 {
        stroke-width: .06px;
      }

      .cls-11 {
        stroke-width: .06px;
      }

      .cls-12 {
        stroke-width: .26px;
      }

      .cls-13 {
        fill: #fcf7c4;
        stroke-width: .12px;
      }

      .cls-14 {
        stroke-width: .09px;
      }

      .cls-15 {
        stroke-width: .06px;
      }

      .cls-16 {
        stroke-width: .06px;
      }

      .cls-18 {
        fill: #f8b2b4;
      }

      .cls-18, .cls-19, .cls-20, .cls-21 {
        stroke-width: 0px;
      }

      .cls-19 {
        fill: #78a3d6;
      }

      .cls-20 {
        fill: #dfcce4;
      }

      .cls-21 {
        fill: #fefbe7;
      }
    </style>
  </defs>
  <g id="Layer_1-2" data-name="Layer 1">
    <path class="cls-9" d="M3.16.87c-.51.96-5.42,10.53-1.23,18.04,3.22,5.76,11.5,9.8,12.41,9.89.08,0,.64.03.79.36.09.19.01.39,0,.43-.21.66-.12,10.14,6.35,17.61.71.82,2.12,2.42,4.4,3.97,10.35,7.01,26.61,4.64,26.91,4.55.02,0,.19-.07.36,0,.08.03.13.08.15.1,0,0,0,0,.01.01.11.13.17.2.21.51.03.24,3.98,8.47,12.76,12.05,10.51,4.28,20.41-1.18,21.61-1.87h0s.91-.11,1.2.1c.11.08.24.19.24.19.05.04.08.07.11.1.01.01.03.03.05.05,8.99,8.97,21.45,10.03,24.44,10.28,21.53,1.82,36.57-13.58,38.68-16.6.6-.85,4.17-6.44,4.18-7.99,0-.11-.02-.67.29-.84.35-.2.93.21,1.03.28,1.17.77,10.87,2.51,19.68-2.54,2.32-1.33,6.5-3.73,8.82-8.58,2.93-6.12,2.09-14.48,1.54-15.7-.06-.13-.47-.95-.16-1.29.11-.13.28-.14.32-.15.85-.1,8.44-3.35,11.79-5.54,6.18-4.05,7.8-11.03,7.89-11.44.56-2.59.4-4.82.18-6.29"/>
    <path class="cls-7" d="M7.51.33c-.49.91-5.21,10.05-1.18,17.22,3.09,5.5,11.06,9.36,11.93,9.44.07,0,.61.03.76.34.09.18.01.38,0,.41-.2.63-.12,9.68,6.1,16.81.68.78,2.04,2.31,4.23,3.79,9.95,6.69,25.58,4.43,25.87,4.34.02,0,.18-.07.35,0,.07.03.12.08.14.1,0,0,0,0,.01.01.11.13.16.19.2.49.03.23,3.82,8.08,12.26,11.5,10.1,4.09,19.61-1.12,20.77-1.78h0s.87-.11,1.15.1c.11.08.23.18.23.18.04.04.08.07.1.09.01.01.03.03.04.04,8.64,8.56,20.62,9.57,23.49,9.81,20.7,1.74,35.15-12.97,37.18-15.84.57-.81,4.01-6.15,4.02-7.62,0-.11-.02-.64.28-.81.34-.19.89.2.99.27,1.12.73,10.45,2.4,18.91-2.43,2.23-1.27,6.25-3.56,8.48-8.19,2.82-5.85,2.01-13.82,1.48-14.98-.06-.12-.45-.91-.16-1.24.11-.12.27-.14.31-.14.81-.1,8.12-3.2,11.33-5.29,5.94-3.86,7.5-10.52,7.58-10.91.54-2.47.39-4.6.17-6.01"/>
    <g>
      <polygon class="cls-18" points="59.56 11.75 59.57 11.3 61.09 11.24 61.04 11.67 59.56 11.75"/>
      <polygon class="cls-19" points="59.47 11.62 59.79 11.3 88.79 11.28 88.63 11.6 59.47 11.62"/>
      <polygon class="cls-21" points="90.29 8.98 89.16 11.05 89.32 48.01 90.17 45.97 90.29 8.98"/>
      <polygon class="cls-21" points="62.63 8.36 59.55 11.31 88.58 11.24 90.09 8.42 62.63 8.36"/>
      <rect class="cls-19" x="61.09" y="11.77" width="27.61" height="37.75" transform="translate(-.11 .28) rotate(-.21)"/>
      <rect class="cls-3" x="59.37" y="11.7" width="29.43" height="37.92" transform="translate(-.11 .27) rotate(-.21)"/>
      <polyline class="cls-5" points="88.69 11.66 90.22 8.82 90.39 8.5 90.14 8.5 62.66 8.53 59.26 11.73"/>
      <path class="cls-3" d="M59.78,11.28c9.75-.04,19.49-.07,29.24-.11.02.66.04,1.73.06,3.03.03,2.09.02,3.1.03,8.5,0,1.92,0,2.72.01,3.76.02,1.98.04,3.42.05,3.73.03,1.9.05,6.53,0,18.44"/>
      <path class="cls-5" d="M62.33,8.83l.32-.3,27.81-.1-.22,37.57-.19.48-1.19,3.08"/>
      <line class="cls-12" x1="62.66" y1="8.53" x2="90.14" y2="8.56"/>
      <line class="cls-2" x1="61.39" y1="9.72" x2="66.12" y2="9.74"/>
      <line class="cls-1" x1="61.05" y1="10.13" x2="62.68" y2="10.13"/>
      <line class="cls-2" x1="62.06" y1="9.18" x2="63.87" y2="9.2"/>
      <line class="cls-2" x1="71.35" y1="9.27" x2="78.46" y2="9.33"/>
      <line class="cls-2" x1="73.8" y1="9.95" x2="79.85" y2="9.99"/>
      <line class="cls-2" x1="86.93" y1="9.17" x2="90.03" y2="9.13"/>
      <polyline class="cls-2" points="84.82 9.91 89.75 9.78 89.75 9.78"/>
      <polyline class="cls-4" points="85.21 10.5 89.36 10.49 89.36 10.49"/>
      <line class="cls-2" x1="61.02" y1="11.87" x2="61.12" y2="49.66"/>
      <ellipse class="cls-13" cx="75.24" cy="28.61" rx="11.69" ry="9.23" transform="translate(-.1 .28) rotate(-.21)"/>
      <g>
        <path class="cls-20" d="M79.14,32.19c.01.24-.02.49-.16.69-.14.21-.37.31-.61.35-.08.01-.17.02-.25.02-1.08-.28-.75.59-2.12.25-.65-.08-.68-.31-1.09-.24-.4.07-.49.3-.82.25-.86-.39-.43-.42-1.47-.12-.46.07-.58-.28-1.14-.18-1.4.68-1.1-2.11.57-4.32.28-.41.42-.5.7-1.03.23-.43-.14-.9-.34-1.53-.15-.48-.23-.98-.18-1.49.04-.39.17-.85.53-1.04.63-.33,1.2.4,1.83.33.22-.02.41-.13.61-.22.48-.21,1.28-.48,1.69.02.11.14.16.31.17.48.02.22,0,.43-.03.65-.05.36-.14.72-.18,1.08-.05.35-.14.7-.11,1.06.02.22.07.44.18.64.05.09.1.17.17.25.08.09.16.19.24.28.22.28.43.58.62.88.21.33.4.66.58,1.01.17.33.32.67.44,1.02.1.29.18.6.19.91Z"/>
        <g>
          <path class="cls-14" d="M72.74,27.86c-.28.53-.41.63-.7,1.03-1.66,2.21-1.97,5-.57,4.32.56-.1.68.25,1.14.18,1.04-.3.62-.27,1.47.12.33.05.42-.18.82-.25.41-.07.44.16,1.09.24,1.37.34,1.05-.53,2.12-.25.09,0,.17,0,.25-.02.24-.04.47-.15.61-.35.14-.2.17-.45.16-.69-.01-.31-.09-.62-.19-.91-.12-.35-.27-.69-.44-1.02-.18-.35-.37-.68-.58-1.01-.19-.3-.4-.6-.62-.88-.08-.1-.15-.19-.24-.28-.07-.08-.11-.16-.17-.25-.11-.19-.16-.41-.18-.64-.03-.36.07-.71.11-1.06.05-.36.13-.72.18-1.08.03-.21.05-.43.03-.65-.02-.17-.06-.35-.17-.48-.41-.5-1.21-.22-1.69-.02-.2.09-.39.2-.61.22-.63.07-1.2-.66-1.83-.33-.37.19-.49.65-.53,1.04-.05.5.03,1.01.18,1.49.2.63.57,1.1.34,1.53Z"/>
          <path class="cls-6" d="M73.55,28.56c-.61.48-1.45,2.65-1.34,3.53"/>
          <path class="cls-14" d="M75.7,28.43c.8.61,1.49,2.66,1.27,3.66"/>
          <path class="cls-8" d="M74.53,29.01c-.2.37-.13,1.43.05,1.71"/>
        </g>
      </g>
      <polyline class="cls-11" points="90.06 46.48 90.09 11.52 89.98 9.33"/>
      <polyline class="cls-11" points="89.9 46.84 89.93 11.88 89.82 9.69"/>
      <polyline class="cls-10" points="89.39 47.97 89.42 12.91 89.31 10.71"/>
      <polyline class="cls-16" points="89.61 47.36 89.66 12.23 89.54 10.03"/>
      <rect class="cls-18" x="59.47" y="11.87" width="1.62" height="37.66" transform="translate(-.11 .22) rotate(-.21)"/>
      <line class="cls-15" x1="61.07" y1="11.38" x2="61.06" y2="11.65"/>
      <polygon class="cls-18" points="59.79 11.42 59.59 11.61 61.03 11.61 61.04 11.42 59.79 11.42"/>
    </g>
    <text class="cls-17" transform="translate(98.98 19.84)"><tspan x="0" y="0">The </tspan><tspan x="0" y="15.6">Fashion</tspan><tspan x="0" y="31.2">Library</tspan></text>
  </g>
</svg>