<?xml version="1.0" encoding="UTF-8"?>
<svg id="Layer_1" data-name="Layer 1" xmlns="http://www.w3.org/2000/svg" viewBox="0 0 129.07 68.08">
  <defs>
    <style>
      .cls-1 {
        stroke-width: .53px;
      }

      .cls-1, .cls-2, .cls-3, .cls-4 {
        fill: none;
        stroke: #231f20;
        stroke-miterlimit: 10;
      }

      .cls-2 {
        stroke-width: .6px;
      }

      .cls-3 {
        stroke-width: .55px;
      }

      .cls-4 {
        stroke-width: .59px;
      }

      .cls-5, .cls-6, .cls-7 {
        isolation: isolate;
      }

      .cls-6, .cls-7 {
        fill: #231f20;
        font-family: DevanagariSangamMN, 'Devanagari Sangam MN';
        font-size: 16.28px;
      }

      .cls-8 {
        fill: #dfcce4;
        stroke-width: 0px;
      }

      .cls-7 {
        letter-spacing: -.08em;
      }
    </style>
  </defs>
  <g>
    <path class="cls-8" d="m51.39,54.94c.05,1.41-.14,2.92-.96,4.11-.84,1.23-2.21,1.86-3.63,2.1-.51.09-1,.12-1.51.13-6.42-1.7-4.5,3.49-12.7,1.45-3.86-.47-4.05-1.84-6.51-1.45-2.37.38-2.91,1.77-4.89,1.46-5.11-2.34-2.55-2.5-8.79-.73-2.78.41-3.47-1.65-6.84-1.09-8.4,4.04-6.51-12.6,3.48-25.76,1.7-2.42,2.5-2.98,4.19-6.15,1.36-2.56-.85-5.39-2-9.14-.88-2.86-1.37-5.87-1.05-8.87.24-2.3,1.01-5.04,3.21-6.15,3.76-1.93,7.14,2.39,10.91,2.01,1.29-.13,2.46-.79,3.65-1.3,2.85-1.22,7.67-2.83,10.1.13.66.8.94,1.85,1.03,2.88.12,1.29,0,2.59-.17,3.86-.3,2.16-.83,4.26-1.12,6.42-.29,2.11-.84,4.15-.69,6.32.1,1.32.42,2.64,1.06,3.8.31.54.58,1.02.98,1.5.48.55.95,1.13,1.4,1.7,1.32,1.69,2.55,3.45,3.71,5.26,1.24,1.95,2.41,3.95,3.45,6.01.99,1.96,1.88,3.98,2.58,6.07.58,1.76,1.05,3.59,1.11,5.45h-.02Z"/>
    <g>
      <path class="cls-1" d="m13.24,29.01c-1.69,3.17-2.5,3.73-4.19,6.15-9.99,13.16-11.89,29.8-3.48,25.76,3.37-.56,4.05,1.5,6.84,1.09,6.23-1.77,3.68-1.6,8.79.73,1.98.31,2.51-1.08,4.89-1.46,2.46-.39,2.66.98,6.51,1.45,8.19,2.04,6.27-3.15,12.7-1.45.51,0,1.01-.05,1.51-.13,1.41-.23,2.79-.86,3.63-2.1.81-1.19,1.01-2.7.96-4.11-.07-1.86-.54-3.69-1.11-5.45-.69-2.09-1.59-4.11-2.58-6.07-1.04-2.06-2.2-4.06-3.45-6.01-1.16-1.8-2.38-3.57-3.71-5.26-.45-.57-.92-1.14-1.4-1.7-.4-.48-.68-.95-.98-1.5-.64-1.16-.97-2.48-1.06-3.8-.15-2.17.41-4.21.69-6.32.29-2.16.82-4.27,1.12-6.42.18-1.28.3-2.58.17-3.86-.11-1.02-.37-2.07-1.03-2.88-2.43-2.98-7.25-1.35-10.1-.13-1.19.51-2.36,1.16-3.65,1.3-3.78.38-7.15-3.94-10.91-2.01-2.19,1.13-2.97,3.85-3.21,6.15-.32,3.01.17,6.01,1.05,8.87,1.16,3.74,3.36,6.58,2,9.14h.02Z"/>
      <path class="cls-2" d="m18.08,33.17c-3.64,2.84-8.75,15.74-8.06,21.04"/>
      <path class="cls-1" d="m30.88,32.45c4.79,3.65,8.85,15.88,7.51,21.86"/>
      <path class="cls-3" d="m23.9,35.87c-1.2,2.22-.83,8.54.27,10.21"/>
    </g>
  </g>
  <path class="cls-4" d="m31.03,0v.07"/>
  <g class="cls-5">
    <text class="cls-6" transform="translate(60.59 20.01) scale(.98 1)"><tspan x="0" y="0">THE</tspan></text>
    <text class="cls-7" transform="translate(60.59 39.55) scale(.98 1)"><tspan x="0" y="0">F</tspan></text>
    <text class="cls-6" transform="translate(69.01 39.55) scale(.98 1)"><tspan x="0" y="0">ASHION</tspan></text>
    <text class="cls-6" transform="translate(60.59 59.09) scale(.98 1)"><tspan x="0" y="0">LIBRARY</tspan></text>
  </g>
</svg>