<?xml version="1.0" encoding="UTF-8"?>
<svg id="Layer_2" data-name="Layer 2" xmlns="http://www.w3.org/2000/svg" viewBox="0 0 335.37 87.24">
  <defs>
    <style>
      .cls-1 {
        fill: #fff;
        stroke: #182953;
      }

      .cls-1, .cls-2 {
        stroke-miterlimit: 10;
        stroke-width: .5px;
      }

      .cls-2 {
        fill: #c8eaf3;
        stroke: #231f20;
      }
    </style>
  </defs>
  <g id="Layer_1-2" data-name="Layer 1">
    <path class="cls-2" d="M.32,11.26S13.15-.29,26.73.27c1.76.07,10,.53,19.21,5.73,10.64,6.01,15.68,14.47,15.88,14.87.01.03.21.45.25.43.03-.02-.05-.27-.06-.34-.13-.83,5.93-4.21,16.23-5.23.72-.07,1.3-.11,1.57-.13h0c3.27-.21,8.8-.29,15.15,1.07,5.43,1.16,9.72,3.01,11.31,3.72.23.1.43.19.56.25,0,0,.66.39.69.4.61.36,8.24,4.49,9.35,5.81.21.24.33.43.33.43.15.23.28.41.65,1.18.02.04.2.44.26.42.05-.02-.01-.32-.02-.37-.08-.71,6.32-4.91,15.12-3.73,6.91.93,15.22,5.15,15.85,5.81.05.05.35.39.58.29.18-.08.23-.41.24-.44.11-.57,9.08-15.36,26.89-21.27,0,0,25.4-8.43,50.58,11.57,1.56,1.24,2.77,2.54,2.77,2.54.28.3,3.67,3.95,4.22,5.8.04.15.21.79.46.79.14,0,.24-.2.26-.24.15-.27,1.06-1.33,4.65-2.74,4.29-1.68,7.24-2.16,7.24-2.16,14.82-2.43,28.53,5.1,28.91,5.58.02.03.25.35.42.28.05-.02.08-.08.09-.09.08-.16,4.21-4.68,16.5-6.09,4.82-.55,7.58-.25,9.05-.02,1.19.18,2.41.36,4.01.89,1.57.51,7.19,2.55,8.34,3.55.09.08.45.41.69.27.17-.1.21-.39.21-.44.1-.65,2.98-5.9,9.25-9.37,5.02-2.78,9.88-3.13,10.19-2.22,0,0,0,0,0,0,0,0,.05-.23.05-.23s-.05.23-.05.23h0s.23,69.91.23,69.91H.25S.32,11.26.32,11.26H.32Z"/>
    <path class="cls-1" d="M.6,17.92S13.42,7.42,27.01,7.92c1.76.07,10,.49,19.21,5.22,10.64,5.47,15.68,13.17,15.88,13.53.01.03.21.41.25.39.03-.02-.05-.25-.06-.31-.13-.76,5.93-3.83,16.23-4.76.72-.06,1.3-.1,1.57-.12h0c3.27-.19,8.8-.26,15.15.97,5.43,1.06,9.72,2.74,11.31,3.39.23.1.43.18.56.23,0,0,.66.35.69.37.61.33,8.24,4.08,9.35,5.29.21.22.33.39.33.39.15.21.28.37.65,1.07.02.04.2.4.26.38.05-.02-.01-.29-.02-.34-.08-.64,6.32-4.46,15.12-3.39,6.91.84,15.22,4.69,15.85,5.28.05.04.35.35.58.26.18-.07.23-.37.24-.4.11-.52,9.08-13.98,26.89-19.35,0,0,25.4-7.67,50.58,10.53,1.56,1.13,2.77,2.31,2.77,2.31.28.27,3.67,3.59,4.22,5.28.04.14.21.71.46.72.14,0,.24-.18.26-.21.15-.24,1.06-1.21,4.65-2.49,4.29-1.53,7.24-1.97,7.24-1.97,14.82-2.21,28.53,4.64,28.91,5.08.02.02.25.32.42.25.05-.02.08-.08.09-.08.08-.15,4.21-4.26,16.5-5.54,4.82-.5,7.58-.22,9.05-.02,1.19.16,2.41.33,4.01.81,1.57.47,7.19,2.32,8.34,3.23.09.07.45.37.69.24.17-.09.21-.35.21-.4.1-.6,2.98-5.36,9.25-8.52,5.02-2.53,9.88-2.85,10.19-2.02,0,0,0,0,0,0,0,0,.05-.21.05-.21s-.05.21-.05.21h0s.23,63.61.23,63.61H.53s.07-68.9.07-68.9h0Z"/>
  </g>
</svg>