<?xml version="1.0" encoding="UTF-8"?>
<svg id="Layer_2" data-name="Layer 2" xmlns="http://www.w3.org/2000/svg" viewBox="0 0 87.38 66.59">
  <defs>
    <style>
      .cls-1 {
        fill: #fcf7c4;
      }

      .cls-1, .cls-2 {
        stroke: #231f20;
        stroke-miterlimit: 10;
        stroke-width: 1.5px;
      }

      .cls-2 {
        fill: #737ebd;
      }
    </style>
  </defs>
  <g id="Layer_1-2" data-name="Layer 1">
    <g>
      <path class="cls-2" d="M72.36,46.17c.9-3.4,1.85-8.75,1.02-15.19-.44-3.4-1.46-11.36-7.14-18.13C58.49,3.63,44.03-1.03,30.5,1.38,18.26,3.55,5.92,11.66,1.97,24.52c-4.63,15.03,5.37,27.21,6.34,28.35,8.92,10.49,23.67,13.98,34.56,12.73,10.54-1.21,12.69-6.31,23.19-5.93,11.48.41,19.62,6.9,20.56,5.64,0,0,1.17-1.32-14.25-19.13Z"/>
      <ellipse class="cls-1" cx="18.3" cy="35.12" rx="5.8" ry="5.61"/>
      <ellipse class="cls-1" cx="38.73" cy="35.26" rx="5.6" ry="5.41"/>
      <ellipse class="cls-1" cx="56.96" cy="34.97" rx="5.38" ry="5.19"/>
    </g>
  </g>
</svg>