<?xml version="1.0" encoding="UTF-8"?>
<svg id="Layer_2" data-name="Layer 2" xmlns="http://www.w3.org/2000/svg" viewBox="0 0 148.27 145.88">
  <defs>
    <style>
      .cls-1 {
        fill: #c8eaf3;
        stroke-width: 0px;
      }
    </style>
  </defs>
  <g id="Layer_1-2" data-name="Layer 1">
    <path class="cls-1" d="M75.11,72.49c-3.25-2.26-7.43-5.57-11.62-10.23-1.7-1.88-5.52-6.33-9.07-12.78,0,0-6.66-12.1-9.95-40.02-.1-.83-.14-1.87-.18-2.71-.06-1.48-.09-2.22.09-2.36.84-.64,4.62,2.69,8.05,6.31,3.83,4.05,6.27,7.46,8.52,10.63,0,0,5.13,7.25,7.53,12.74.59,1.34,1.13,2.74,1.13,2.74s.41,1.05.77,2.11c1.02,2.94,3.91,23.97,2.89,24.07-.82.08-4.11-13.3-3.17-27.87.61-9.38,2.76-15.88,3.45-17.88,1.26-3.62,3.92-10.2,9.04-17.09.01-.02.04-.14.11-.15.02,0,.11,0,.27.3,2.5,4.91,3.06,7.7,3.06,7.7.66,3.3.94,5.11.94,5.11,1.17,7.6.85,6.22,1.96,14.5.42,3.15.67,4.85.2,7.23-.47,2.4-1.47,4.55-1.51,4.53-.04-.01.57-2.02,1.07-3.28,1.15-2.91,2.94-4.9,8.98-10,4.44-3.75,6.66-5.62,9.19-7.37,6.55-4.51,10.28-5.64,11-6.36.01-.01.04-.04.08-.04.44.08-.15,6.33-1.02,10.86-1.38,7.14-3.84,11.96-6.89,17.92-1.44,2.81-2.9,5.31-5.53,7.56-1.56,1.34-3.31,2.4-3.33,2.37-.03-.04,2.82-2.43,5.91-4.25,4.14-2.44,7.59-3.18,14.4-4.65,3.98-.86,7.78-1.66,13-1.89,0,0,1.45-.02,10.25.34,0,0-4.22,6.55-7.94,10.82-4.94,5.67-10.18,8.7-15.72,11.9-6.56,3.78-9.24,5.61-13.03,6.1-3.32.43-6.4.02-6.4-.04,0-.09,6.49-.23,13,.12,6.53.35,11.38.61,17.04,2.15,8.69,2.36,16.61,7.85,16.61,7.85-3.37,2.31-9.52,5.88-18.02,7.42-9.18,1.66-16.46.1-19.06-.55-6.8-1.7-12.01-4.78-11.95-4.9.06-.15,8.23,2.2,16.49,7.29,4.51,2.78,18.27,11.53,21.52,26.48.13.61.91,1.75.43,2.45-.56.82-2.41.66-7.48-.74-5.5-1.51-9.13-2.88-9.13-2.88-3.19-1.21-6.62-2.5-11.1-4.72-3.58-1.78-6.34-3.16-9.72-5.66-.79-.59-2.86-2.15-4.93-4.15-6.51-6.3-10.23-14.25-9.77-14.55.52-.34,8.12,8.27,13.05,19.45,2.53,5.73,4.02,11.39,5.02,15.14,1.72,6.51,1.92,9.35,1.97,10.2.19,3.25-.19,13.02-.11,9.77,0,0-5.85-3.41-10.75-8.54-.3-.32.08.07-4.8-5.91-3.1-3.8-4.33-5.28-5.71-7.66-.54-.93-1.53-2.66-2.35-4.92-2.03-5.56-1.85-11.05-1.52-11.09.37-.04,2.4,6.53,1.85,13.82-.35,4.7-1.67,7.99-4.3,14.55,0,0-1.41,3.51-7.61,16.07-.7-1.04-1.65-2.57-2.58-4.52-2.44-4.35-3.12-10.21-3.69-15.45-.45-4.14-.88-8.08-.53-13.43.28-4.35,1.15-10.64,3.82-17.91-.65,3.78-1.9,6.49-2.9,8.25-.67,1.19-1.62,2.45-3.52,4.97-2.16,2.87-3.27,4.35-4.83,6.04-.99,1.07-1.9,1.95-6.32,5.67-4.31,3.62-6.46,5.44-7.95,6.55-2.39,1.8-5.77,4.16-10.09,6.65.15-4.23.8-9.37,2.57-14.99,1.13-3.61,3.56-10.05,8.55-16.76,4.28-5.75,9.23-10.07,9.38-9.93.15.14-3.2,5.53-9.24,9.24-4.44,2.73-8.58,3.47-14.2,4.48-5.88,1.05-11.25,1.16-15.79,1.24-2.21.04-4.04.02-5.31,0,1.91-2.57,4.74-6.04,8.62-9.72,4.49-4.26,8.18-6.71,13.65-10.34,7.75-5.15,10.95-6.24,12.41-6.69,3.97-1.22,7.92-1.64,7.93-1.59.01.07-5.14,1.72-11.31,1.59-2-.04-3.88-.27-9.45-1.59-10.41-2.46-15.62-3.69-20.55-6.41-2.3-1.27-5.51-3.3-8.96-6.48,4.2-2.35,9.69-4.73,16.34-6.07,4.32-.87,10.29-2.01,17.65-.55,3.33.66,7.2,1.9,7.17,2-.01.06-1.34-.17-2.41-.48-3.73-1.07-6.17-3.55-7.59-5.03-4.87-5.1-7.31-7.65-10.76-12.62-1.83-2.64-4.18-6.27-6.62-10.83,9.81-.67,16.52,1.3,20.69,3.1,2.4,1.04,5.4,2.64,11.03,5.65,4,2.14,7.28,3.97,9.52,5.24"/>
  </g>
</svg>