<?xml version="1.0" encoding="UTF-8"?>
<svg id="Layer_2" data-name="Layer 2" xmlns="http://www.w3.org/2000/svg" viewBox="0 0 140.93 134.41">
  <defs>
    <style>
      .cls-1 {
        fill: #231f20;
        font-family: BMDoHyeon-OTF-KSCpc-EUC-H, 'BM Dohyeon';
        font-size: 31.83px;
      }

      .cls-2 {
        fill: #d1d3d4;
        stroke: #13276f;
        stroke-miterlimit: 10;
      }
    </style>
  </defs>
  <g id="Layer_1-2" data-name="Layer 1">
    <path class="cls-2" d="M48.71,26.86c-1.91-6.75.22-13.93,5.37-18.2,6.04-5,15.19-5.11,21.83,0C84.75.35,97.61-1.83,108.17,3.12c14.31,6.71,16.21,22.66,16.29,23.46,9.34,2.67,15.84,11.09,15.97,20.53.12,8.68-5.17,16.71-13.36,20.2,3.08,8.91.71,18.82-6.04,25.31-6.95,6.68-17.32,8.56-26.25,4.73-.53.63-9.62,11.06-23.67,9.04-14.15-2.04-19.92-14.77-20.23-15.49-6.8,2.41-14.31-.42-17.65-6.46-3.04-5.5-2.03-12.58,2.58-17.21-9.37-4.65-14.08-15.38-11.23-25.23,2.97-10.24,13.36-16.84,24.12-15.14Z"/>
    <path class="cls-2" d="M7,107.87c-.94-2.63-.7-5.49.88-7.27,2.37-2.67,7.71-2.87,11.47.8.53-4.41,3.7-7.87,7.47-8.51,4.81-.81,10.09,3.05,10.75,8.97,4.08-.7,8.07,1.29,9.73,4.69,1.98,4.06.31,9.41-4.12,11.85,3.57,5.13,1.64,11.77-2.71,13.92-3.54,1.75-8.58.45-11.41-3.55-2.1,3.49-5.86,5.51-9.51,5.09-4.82-.55-8.85-5.29-8.59-11.05-4.76,1.46-9.57-1.6-10.35-5.91-.71-3.9,2.01-8.08,6.39-9.03Z"/>
    <text class="cls-1" transform="translate(59.33 65.07)"><tspan x="0" y="0">CO² </tspan></text>
  </g>
</svg>