<?xml version="1.0" encoding="UTF-8"?>
<svg id="Layer_2" data-name="Layer 2" xmlns="http://www.w3.org/2000/svg" viewBox="0 0 66.28 36.83">
  <defs>
    <style>
      .cls-1 {
        stroke-width: .21px;
      }

      .cls-1, .cls-2 {
        fill: none;
        stroke: #182953;
        stroke-miterlimit: 10;
      }

      .cls-2 {
        stroke-width: .62px;
      }

      .cls-3 {
        fill: #737ebd;
        stroke-width: 0px;
      }
    </style>
  </defs>
  <g id="Layer_1-2" data-name="Layer 1">
    <g>
      <g>
        <path class="cls-3" d="M64.6,32.48c.98,1.62,1.58,3.49,1.31,3.89-.06-.06-.26-.14-.83-.27-.03-.02-.11-.07-.21-.13-.17-.11-.35-.21-.51-.32-.28-.17-.55-.33-.81-.49-.01,0-.03-.01-.04-.02-.09-.06-.17-.11-.27-.17,0,0-.16-.1-.54-.28,0,0-.01,0-.02,0-.93-.52-1.58-.84-1.73-.91-1.09-.55-7.04-3.93-27.87-16.04l-.25-.02c.03-.06.15-.25.23-.6.08-.29.16-.77.08-1.41-.02-.2-.04-.49-.07-.85-.05-.59-.09-1-.11-1.14-.11-1.11-.05-1.38-.09-1.89,3.65.07,6.88,3.71,7.76,4.7,1.69,1.9,1.3,2.34,3,3.98,1.65,1.59,3.25,2.38,5.7,3.54,2.06.98,3.85,1.63,6.68,2.65,3.17,1.15,3.96,1.3,5.31,2.26.56.4,2.08,1.54,3.29,3.54Z"/>
        <path class="cls-3" d="M31.88,11.88c.33-.06.66-.08.99-.07.04.51-.02.79.09,1.89.01.14.06.55.11,1.14.03.36.06.66.07.85.09.64,0,1.12-.08,1.41-.09.35-.2.55-.23.6-.21.34-.47.54-.65.67-.8.57-1.42.84-1.42.84-.53.22-1.32.67-2.9,1.57-.57.33-.36.22-2.06,1.23-.85.5-1.03.61-1.67.98-1.14.68-1.97,1.18-2.21,1.33-2.31,1.4-6.21,3.51-11,6.24,0,0-2.83,1.49-5.35,3.02h0s-.22.13-.45.27c-.21.13-.47.3-.75.49-1.19.81-2.86,1.99-3.6,1.99-.1,0-.19-.02-.25-.07-.61-.49.22-2.92,1.62-4.71,1.3-1.66,2.77-2.37,6.15-3.83,7.63-3.29,8.36-3.24,10.62-4.78,1.22-.83,3.05-2.07,4.94-4.21,1.79-2.03,2.52-3.58,4.71-5.14,1.3-.92,2.11-1.51,3.34-1.71Z"/>
        <path class="cls-3" d="M63.05,36.47c-.89-.08-19.15-.13-62.29-.13.74,0,2.41-1.18,3.6-1.99,4.95.13,9.01.15,11.84.17,15.93.14,14.17-.29,22.38-.05,0,0,18.43.54,23.04.02.02,0,.17-.04.36-.02.22.02.38.08.53.15.06.02.11.05.16.07,0,0,0,0,.02,0,.25.14.52.29.81.45.01.01.03.02.04.02.28.18.53.34.75.49.93.59,1.42.87,1.57.78.02-.01.04-.03.06-.06.01.02.02.02.02.04-.01.11-.87.11-1.45.11-.6,0-.91,0-1.42-.05Z"/>
      </g>
      <g>
        <path class="cls-2" d="M62.67,34.68s-.1-.05-.16-.07c-.15-.07-.32-.13-.53-.15-.19-.02-.34.02-.36.02-4.61.53-23.04-.02-23.04-.02-8.21-.24-6.45.19-22.38.05-2.83-.02-6.89-.05-11.84-.17"/>
        <path class="cls-2" d="M63.49,35.14c-.09-.06-.17-.11-.27-.17,0,0-.16-.1-.54-.28"/>
        <path class="cls-2" d="M29.91,5.03c-.88-1.21-.81-2.83.09-3.85,1.15-1.3,3.21-.96,4.36-.17,1.83,1.25,2.02,4.08,1.03,5.4-.81,1.08-2.1.72-2.74,1.88-.04.07-.07.14-.09.21-.27.97.06,1.53.26,2.87.02.17.04.32.04.44.04.51-.02.79.09,1.89.01.14.06.55.11,1.14.03.36.06.66.07.85.09.64,0,1.12-.08,1.41-.09.35-.2.55-.23.6-.21.34-.47.54-.65.67-.8.57-1.42.84-1.42.84-.53.22-1.32.67-2.9,1.57-.57.33-.36.22-2.06,1.23-.85.5-1.03.61-1.67.98-1.14.68-1.97,1.18-2.21,1.33-2.31,1.4-6.21,3.51-11,6.24,0,0-2.83,1.49-5.35,3.02h0s-.22.13-.45.27c-.21.13-.47.3-.75.49-1.19.81-2.86,1.99-3.6,1.99-.1,0-.19-.02-.25-.07-.61-.49.22-2.92,1.62-4.71,1.3-1.66,2.77-2.37,6.15-3.83,7.63-3.29,8.36-3.24,10.62-4.78,1.22-.83,3.05-2.07,4.94-4.21,1.79-2.03,2.52-3.58,4.71-5.14,1.3-.92,2.11-1.51,3.34-1.71.33-.06.66-.08.99-.07,3.65.07,6.88,3.71,7.76,4.7,1.69,1.9,1.3,2.34,3,3.98,1.65,1.59,3.25,2.38,5.7,3.54,2.06.98,3.85,1.63,6.68,2.65,3.17,1.15,3.96,1.3,5.31,2.26.56.4,2.08,1.54,3.29,3.54.98,1.62,1.58,3.49,1.31,3.89-.02.02-.04.04-.06.06-.14.09-.64-.19-1.57-.78-.22-.14-.47-.3-.75-.49"/>
        <path class="cls-2" d="M.67,36.33h.09c43.14,0,61.4.06,62.29.13.52.05.82.05,1.42.05.57,0,1.44,0,1.45-.11,0-.01,0-.02-.02-.04-.06-.06-.26-.14-.83-.27-.03-.02-.11-.07-.21-.13-.17-.11-.35-.21-.51-.32-.28-.17-.55-.33-.81-.49-.01,0-.03-.01-.04-.02-.29-.16-.56-.32-.81-.45,0,0-.01,0-.02,0-.93-.52-1.58-.84-1.73-.91-1.09-.55-7.04-3.93-27.87-16.04"/>
        <path class="cls-1" d="M57.97,28.9c.87.26,2.25.81,3.63,1.94,1.08.89,1.78,1.84,2.21,2.53"/>
        <path class="cls-1" d="M35.91,13.78c.52.33,1.15.79,1.79,1.4.61.59,1.07,1.17,1.41,1.67"/>
        <path class="cls-1" d="M26.5,17.85c.32-.65.92-1.68,2-2.65,1.09-.98,2.2-1.47,2.88-1.72"/>
        <line class="cls-1" x1="7.01" y1="35.6" x2="2.7" y2="35.6"/>
        <path class="cls-1" d="M2.39,33.37c.43-.7,1.23-1.81,2.57-2.78,1.19-.87,2.34-1.29,3.1-1.5"/>
        <polyline class="cls-1" points="57.25 35.78 64.29 35.65 64.35 35.65 64.52 35.65"/>
      </g>
    </g>
  </g>
</svg>