<?xml version="1.0" encoding="UTF-8"?>
<svg id="Layer_2" data-name="Layer 2" xmlns="http://www.w3.org/2000/svg" viewBox="0 0 37.77 39.88">
  <defs>
    <style>
      .cls-1 {
        fill: #737ebd;
        stroke: #231f20;
        stroke-miterlimit: 10;
        stroke-width: .78px;
      }
    </style>
  </defs>
  <g id="Layer_1-2" data-name="Layer 1">
    <path class="cls-1" d="M18.94.47L.46,19.29c-.16.16-.03.42.2.41l4.58-.19c.15,0,.27.11.27.25l-.26,19.47c0,.14.12.25.26.25l9.56-.1c.14,0,.26-.11.25-.25l-.16-9.73c0-.13.11-.25.25-.25l7.77-.19c.15,0,.26.11.26.25l-.08,9.4c0,.14.12.25.26.25l8.93-.16c.14,0,.26-.12.25-.25l-.49-19.22c0-.13.1-.24.24-.25l4.58-.26c.22-.01.32-.26.17-.42L19.31.46c-.1-.1-.27-.1-.37,0Z"/>
  </g>
</svg>