<?xml version="1.0" encoding="UTF-8"?>
<svg id="Layer_2" data-name="Layer 2" xmlns="http://www.w3.org/2000/svg" viewBox="0 0 34.62 34.8">
  <defs>
    <style>
      .cls-1 {
        fill: none;
        stroke: #231f20;
        stroke-miterlimit: 10;
        stroke-width: .47px;
      }

      .cls-2 {
        fill: #737ebd;
      }

      .cls-2, .cls-3 {
        stroke-width: 0px;
      }

      .cls-3 {
        fill: #fcf7c4;
      }
    </style>
  </defs>
  <g id="Layer_1-2" data-name="Layer 1">
    <g>
      <g>
        <path class="cls-2" d="M17.31.23c9.43,0,17.08,7.69,17.08,17.17s-7.64,17.17-17.08,17.17S.23,26.88.23,17.4,7.88.23,17.31.23ZM17.38,32.76c1.6-.57,1.53-12.28,1.53-12.28,0,0-.08-11.88-1.75-12.42-.23-.08-.46-.07-.46-.07,0,0-.26,0-.52.11-1.26.52-1.05,12.25-1.05,12.25,0,0,.21,11.88,1.47,12.4.2.08.4.09.4.09,0,0,.19,0,.38-.07ZM17.91,5.33c0-.74-.51-1.34-1.13-1.34s-1.13.6-1.13,1.34.51,1.34,1.13,1.34,1.13-.6,1.13-1.34Z"/>
        <path class="cls-3" d="M16.78,3.99c.63,0,1.13.6,1.13,1.34s-.51,1.34-1.13,1.34-1.13-.6-1.13-1.34.51-1.34,1.13-1.34Z"/>
        <path class="cls-3" d="M17.17,8.05c1.67.54,1.75,12.42,1.75,12.42,0,0,.07,11.72-1.53,12.28-.19.07-.38.07-.38.07,0,0-.2,0-.4-.09-1.26-.52-1.47-12.4-1.47-12.4,0,0-.2-11.72,1.05-12.25.26-.11.52-.11.52-.11,0,0,.23,0,.46.07Z"/>
      </g>
      <g>
        <path class="cls-1" d="M15.13,20.34s.21,11.88,1.47,12.4c.2.08.4.09.4.09,0,0,.19,0,.38-.07,1.6-.57,1.53-12.28,1.53-12.28,0,0-.08-11.88-1.75-12.42-.23-.08-.46-.07-.46-.07,0,0-.26,0-.52.11-1.26.52-1.05,12.25-1.05,12.25Z"/>
        <path class="cls-1" d="M17.91,5.33c0,.74-.51,1.34-1.13,1.34s-1.13-.6-1.13-1.34.51-1.34,1.13-1.34,1.13.6,1.13,1.34Z"/>
        <ellipse class="cls-1" cx="17.31" cy="17.4" rx="17.08" ry="17.17"/>
      </g>
    </g>
  </g>
</svg>