<?xml version="1.0" encoding="UTF-8"?>
<svg id="Layer_2" data-name="Layer 2" xmlns="http://www.w3.org/2000/svg" viewBox="0 0 94.32 105.67">
  <defs>
    <style>
      .cls-1 {
        stroke-width: 3.67px;
      }

      .cls-1, .cls-2, .cls-3 {
        fill: none;
        stroke: #182953;
        stroke-miterlimit: 10;
      }

      .cls-2 {
        stroke-width: 2.47px;
      }

      .cls-4 {
        fill: #fcf7c4;
      }

      .cls-4, .cls-5 {
        stroke-width: 0px;
      }

      .cls-5 {
        fill: #fbe3c4;
      }

      .cls-3 {
        stroke-width: 2.45px;
      }
    </style>
  </defs>
  <g id="Layer_1-2" data-name="Layer 1">
    <g>
      <g>
        <path class="cls-5" d="M21.27,95.77C9.01,86.71.81,71.39,1.61,54.12l.13-.02c2.09,13.71,10.22,25.42,21.6,32.33l-.26.7c-.6,2.88-1.21,5.75-1.81,8.64Z"/>
        <path class="cls-5" d="M35.34,91.54l-.65,10.26-.23.73c-4.72-1.48-9.17-3.78-13.19-6.76.6-2.89,1.21-5.76,1.81-8.64l.26-.7c3.69,2.24,7.72,3.98,12,5.11Z"/>
        <path class="cls-5" d="M49.04,93.89l.32,9.97.04.51c-1.73.1-3.48.1-5.23-.01-3.32-.22-6.57-.84-9.71-1.83l.23-.73.65-10.26c3.77,1.01,7.73,1.54,11.82,1.54.62,0,1.23-.01,1.84-.04l.04.85Z"/>
        <path class="cls-5" d="M75.97,82.92c8.94-7.21,15.11-17.69,16.71-29.62l.21.03c.85,15.35-5.41,29.03-15.27,38.37l-1.65-8.78Z"/>
        <path class="cls-5" d="M75.97,82.92l1.65,8.78c-3.7,3.5-7.91,6.4-12.44,8.54l-.25-.61c-.65-2.87-1.3-5.73-1.95-8.6h-2.17c5.59-1.75,10.72-4.53,15.16-8.11Z"/>
        <path class="cls-5" d="M64.93,99.63l.25.61c-4.96,2.34-10.3,3.78-15.78,4.13l-.04-.51-.32-9.97-.04-.85c4.1-.16,8.06-.86,11.81-2.02h2.17c.65,2.88,1.3,5.74,1.95,8.61Z"/>
        <path class="cls-4" d="M75.97,82.92c-4.44,3.58-9.57,6.36-15.16,8.1-3.75,1.16-7.71,1.86-11.81,2.02-.61.03-1.22.04-1.84.04-4.09,0-8.05-.53-11.82-1.54-4.28-1.13-8.31-2.87-12-5.11C11.96,79.52,3.83,67.81,1.74,54.1c-.34-2.26-.52-4.59-.52-6.95C1.22,21.78,21.79,1.22,47.16,1.22s45.93,20.56,45.93,45.93c0,2.09-.14,4.14-.41,6.15-1.6,11.93-7.77,22.41-16.71,29.62Z"/>
      </g>
      <g>
        <path class="cls-3" d="M1.74,54.1c-.34-2.26-.52-4.59-.52-6.95C1.22,21.78,21.79,1.22,47.16,1.22s45.93,20.56,45.93,45.93c0,2.09-.14,4.14-.41,6.15-1.6,11.93-7.77,22.41-16.71,29.62-4.44,3.58-9.57,6.36-15.16,8.1-3.75,1.16-7.71,1.86-11.81,2.02-.61.03-1.22.04-1.84.04-4.09,0-8.05-.53-11.82-1.54-4.28-1.13-8.31-2.87-12-5.11C11.96,79.52,3.83,67.81,1.74,54.1Z"/>
        <path class="cls-3" d="M1.61,54.12c-.8,17.27,7.4,32.59,19.66,41.65,4.02,2.98,8.47,5.28,13.19,6.76,3.14.99,6.39,1.61,9.71,1.83,1.75.11,3.5.11,5.23.01,5.48-.35,10.82-1.79,15.78-4.13,4.53-2.14,8.74-5.04,12.44-8.54,9.86-9.34,16.12-23.02,15.27-38.37"/>
        <path class="cls-3" d="M23.08,87.13c-.6,2.88-1.21,5.75-1.81,8.64-.01.04-.02.09-.03.13"/>
        <polyline class="cls-2" points="35.35 91.46 35.34 91.54 34.69 101.8"/>
        <line class="cls-3" x1="49.04" y1="93.89" x2="49.36" y2="103.86"/>
        <path class="cls-2" d="M62.98,91.03c.65,2.87,1.3,5.73,1.95,8.6"/>
        <polyline class="cls-2" points="75.96 82.89 75.97 82.92 77.62 91.7 77.67 91.98"/>
        <path class="cls-1" d="M55.91,19.03c-1.7-.34-13.31-2.49-22.83,5.31-5.29,4.33-7.69,9.9-8.68,14.88-1.29,6.37-.28,11.79-.15,12.47.05.26.12.6.22,1.03.81,3.56,3.44,12.46,12.41,17.5,9.69,5.44,19.46,2.26,21.06,1.72"/>
        <polyline class="cls-1" points="16.76 39.39 24.4 39.22 42.06 38.82"/>
        <polyline class="cls-1" points="17.79 52.95 24.47 52.72 42.53 52.1"/>
      </g>
    </g>
  </g>
</svg>