<?xml version="1.0" encoding="UTF-8"?>
<svg id="Layer_2" data-name="Layer 2" xmlns="http://www.w3.org/2000/svg" viewBox="0 0 64.05 71.46">
  <defs>
    <style>
      .cls-1 {
        fill: none;
        stroke: #13276f;
        stroke-miterlimit: 10;
      }

      .cls-2 {
        fill: #cbe7d3;
        stroke-width: 0px;
      }
    </style>
  </defs>
  <g id="Layer_1-2" data-name="Layer 1">
    <g>
      <g>
        <path class="cls-2" d="M63.51,7.53c1.34,12.66-29.72,27.4-31.77,24.68.12-.18.08-.42.07-.49.04-.29.09-.63.15-1.01,1.73-3.46,9.81-11.21,15.43-15.71,5.79-4.65,11.31-7.72,15.53-9.72.22.51.49,1.29.59,2.25Z"/>
        <path class="cls-2" d="M62.32,5.28h.6c-4.22,2-9.74,5.07-15.53,9.72-5.62,4.5-13.7,12.25-15.43,15.71.82-5.29,3.36-18.72,12.26-23.19,4.37-2.19,10.27-2.21,18.1-2.24Z"/>
        <path class="cls-2" d="M31.74,31.23c-.15.43-.16.77,0,.98.11.1-10.89-8.59-19.54-18.87C10,10.72,6.74,6.56,3.32.9v-.4c3.24-.03,9.81.42,16.3,4.6,3.8,2.45,6.02,5.18,6.73,6.1,6.15,7.9,4.84,15.75,5.39,20.03Z"/>
        <path class="cls-2" d="M12.2,13.34c8.65,10.28,19.65,18.97,19.54,18.87-.25.37-.96.29-1.22.26C4.49,29.51.98,14.77.98,14.77.51,12.82-.4,7.53,2.88.51c.14,0,.28,0,.43-.01v.4c3.43,5.66,6.69,9.82,8.89,12.44Z"/>
      </g>
      <g>
        <path class="cls-1" d="M32.43,71.21c-1.93-5.63-3.98-14.04-3.45-24.24.24-4.54.94-8.58,1.79-11.99.32-.92.64-1.84.97-2.77.01-.11.04-.28.07-.49.04-.29.09-.63.15-1.01.82-5.29,3.36-18.72,12.26-23.19,4.37-2.19,10.27-2.21,18.1-2.24h.6c.22.51.49,1.29.59,2.25,1.34,12.66-29.72,27.4-31.77,24.68-.16-.21-.15-.55,0-.98.05-.16.12-.33.22-.52,1.73-3.46,9.81-11.21,15.43-15.71,5.79-4.65,11.31-7.72,15.53-9.72"/>
        <path class="cls-1" d="M3.31.5c-.15.01-.29.01-.43.01C-.4,7.53.51,12.82.98,14.77c0,0,3.51,14.74,29.54,17.7.26.03.97.11,1.22-.26.12-.18.08-.42.07-.49-.03-.16-.05-.32-.07-.49-.55-4.28.76-12.13-5.39-20.03-.71-.92-2.93-3.65-6.73-6.1C13.13.92,6.56.47,3.31.5Z"/>
        <path class="cls-1" d="M3.32.9c3.42,5.66,6.68,9.82,8.88,12.44,8.65,10.28,19.65,18.97,19.54,18.87"/>
      </g>
    </g>
  </g>
</svg>