<?xml version="1.0" encoding="UTF-8"?>
<svg id="Layer_2" data-name="Layer 2" xmlns="http://www.w3.org/2000/svg" viewBox="0 0 129.57 127.12">
  <defs>
    <style>
      .cls-1 {
        stroke: #737ebd;
      }

      .cls-1, .cls-2 {
        fill: #737ebd;
        stroke-miterlimit: 10;
      }

      .cls-2 {
        stroke: #231f20;
      }
    </style>
  </defs>
  <g id="Layer_1-2" data-name="Layer 1">
    <path class="cls-2" d="M65.9,11.71c-1.99,3.08-4.9,7.83-7.98,13.9-3.59,7.08-4.35,9.89-7.17,10.83-2.35.78-3.85-.57-13.94-6.23-9.26-5.19-11.01-5.75-11.51-7.99-.65-2.93,1.69-5.97,6.36-12.05,3.08-4.01,4.62-6.01,6.5-7.17,6.32-3.92,15.56-2.94,21.21,1.27,2.7,2.01,4.71,4.86,7.08,8.21,1.64,2.32,1,1.79,3.73,6.02,1,1.54,2.95,5.15,6.85,12.36.3.55.87,1.65.52,2.74-.32.96-1.2,1.43-2.34,2.08-3.23,1.84-4.84,2.76-4.84,3.2.02,1.27,6.89,1.69,16.24,3.25,10.59,1.76,12.32,2.98,15.16,1.49,2.64-1.38,2.94-3.36,7.31-13.67,4.35-10.26,7.38-16.17,6.23-16.92-.91-.59-4.57,1.93-5.83,2.87-.98.74-2,1.64-3.24,1.46-.91-.14-1.53-.8-1.8-1.11-2.38-2.73-6.41-10.18-7.95-12.21-4.26-5.65-13.74-2.09-39.26-3.05-3.77-.14-6.82-.34-8.68-.48"/>
    <path class="cls-2" d="M108.05,83.9c-1.74-3.23-4.5-8.06-8.34-13.69-4.47-6.56-6.57-8.58-6.03-11.51.45-2.43,2.36-3.1,12.18-9.22,9.01-5.61,10.34-6.88,12.54-6.23,2.88.84,4.42,4.35,7.49,11.38,2.03,4.63,3.04,6.94,3.16,9.15.39,7.43-4.93,15.05-11.33,17.98-3.07,1.4-6.53,1.79-10.6,2.25-2.83.32-2.05.01-7.07.37-1.83.13-5.94.1-14.14.05-.63,0-1.86-.03-2.65-.87-.69-.74-.68-1.74-.7-3.05-.06-3.72-.09-5.58-.47-5.78-1.12-.59-4.8,5.22-10.67,12.67-6.65,8.43-8.54,9.36-8.61,12.57-.06,2.98,1.53,4.2,8.46,12.99,6.9,8.75,10.62,14.26,11.83,13.61.95-.51.52-4.93.29-6.5-.17-1.21-.48-2.54.28-3.54.56-.74,1.44-.95,1.84-1.04,3.54-.77,12.01-.71,14.53-1.08,7-1.01,8.46-11.03,21.6-32.93,1.94-3.23,3.59-5.81,4.6-7.37"/>
    <path class="cls-2" d="M54.02,85.32c.81.8.7,1.86.41,6.78-.27,4.54-.3,5.9-.31,6.34-.04,1.68-.02,3.19.1,6.22.23,5.71.71,7.97-.77,9.36-.3.28-.87.71-3.61,1.04-2.69.33-4.06.12-8.26,0-3.07-.09-2.7.05-5.14-.05-3.01-.13-5.65-.24-7.22-.69-1.23-.35-3.21-1.57-7.99-11.19-2.11-4.25-9.35-19.77-11.2-21.73-.05-.06-.47-.49-1-1.11-.44-.51-.97-1.18-1.53-1.97-5.54-7.86-5.18-14.71-5.18-14.71.28-5.22,3.12-11.83,6.17-14.2.36-.28,1.5-1.11,1.39-2.05-.11-.97-1.48-1.53-2.77-2.08-1-.43-6.68-2.86-6.62-4.08.08-1.43,8.02-1.19,20.17-3.08,8.26-1.29,9.97-2.24,12.47-.84,3.47,1.94,2.98,5.34,6.72,14.85,3.43,8.71,7.56,15.3,6.77,15.8-.56.35-3.64-2.28-7.62-4.86-.4-.26-1.32-.84-2.2-.56-.66.21-1.01.81-1.16,1.08-3.29,5.77-4.94,8.65-6.2,11.32,0,0-.62,1.32-2.93,5.42-1,1.77-1.34,2.3-2.02,2.72-1.49.94-3.16.47-5.95-.13-5.29-1.14-8.55-1.45-8.54-1.5,0-.05,3.41.98,8.83,1.64,7.92.96,15.27,1.04,18.07,1.06.41,0,2.13.01,4.46.06,1.41.03,3.8.17,8.51.46,2.42.15,3.64.23,4.12.71Z"/>
    <path class="cls-1" d="M108.93,82.78c1.32-.05,3.21-.23,5.39-.83.9-.25,2.02-.56,3.39-1.24.58-.29,2.68-1.36,4.8-3.54.68-.7,1.53-1.68,2.36-2.99"/>
    <path class="cls-1" d="M48.9,1.6c1.21.07,2.19.25,2.89.4.56.12,1.03.26,1.33.35.69.2,1.25.36,1.95.64.83.34,1.44.68,1.94.96.29.16.7.4,1.23.75.78.53,1.34,1,1.58,1.21.38.34.65.6.89.85.14.14.67.68,1.44,1.59,1.03,1.22,1.81,2.31,2.41,3.17.07.1.13.18.17.24"/>
  </g>
</svg>