<?xml version="1.0" encoding="UTF-8"?>
<svg id="Layer_2" data-name="Layer 2" xmlns="http://www.w3.org/2000/svg" viewBox="0 0 71.93 112.62">
  <defs>
    <style>
      .cls-1 {
        fill: #cbe7d3;
        stroke: #182953;
        stroke-miterlimit: 10;
        stroke-width: 2px;
      }
    </style>
  </defs>
  <g id="Layer_1-2" data-name="Layer 1">
    <path class="cls-1" d="M27.15,22.15c-.22.19-.56.49-.96.89-1.87,1.9-2.8,3.91-3.67,5.8-.36.79-.67,1.45-.97,2.39-.18.56-.3,1.01-.6,1.92-.19.57-.37,1.04-.49,1.35-3.02,6.25-14.72,6.92-18.01,0C-3.92,22.97,12.5,6.84,17.83,5.28c21.4-10.54,48.46-.84,52.27,20.71,3.94,18.23-6.77,26.57-20.23,36.9-5.86,4.64-4.23,9.93-6.31,15.38-1.41,4.1-11,7.6-15.37,2.91-8.79-8.84.21-24.28,5.83-29.13,3.29-2.92,11.39-9,12.78-13.59.29-.96,2.77-8.57-.94-14.59-.13-.21-.24-.38-.32-.49-.1-.13-.26-.32-.46-.54-3.13-3.45-8-3.6-8.9-3.63-4.66-.15-7.99,2.17-9.04,2.96Z"/>
    <ellipse class="cls-1" cx="35.85" cy="100.49" rx="11.57" ry="11.12"/>
  </g>
</svg>