<?xml version="1.0" encoding="UTF-8"?>
<svg id="Layer_2" data-name="Layer 2" xmlns="http://www.w3.org/2000/svg" viewBox="0 0 147.89 189.56">
  <defs>
    <style>
      .cls-1 {
        stroke-width: 1.4px;
      }

      .cls-1, .cls-2, .cls-3 {
        fill: none;
        stroke: #231f20;
        stroke-miterlimit: 10;
      }

      .cls-2 {
        stroke-width: 2px;
      }

      .cls-3 {
        stroke-width: 1.87px;
      }

      .cls-4 {
        fill: #78a3d6;
      }

      .cls-4, .cls-5 {
        stroke-width: 0px;
      }

      .cls-5 {
        fill: #daf0f3;
      }
    </style>
  </defs>
  <g id="Layer_1-2" data-name="Layer 1">
    <g>
      <g>
        <path class="cls-5" d="M135.48,69.73c2.84,3.43-2.72,15.86-12.43,20.64-8.03,3.95-17.83,2.17-18.26,0-.39-1.97,7.43-2.16,14.29-9.79,4.79-5.32,5.55-10.33,10.58-11.64.41-.11,4.28-1.07,5.82.79Z"/>
        <path class="cls-5" d="M61.95,161.48c.76,1.16,2.13,3.23,1.59,5.31-1.29,5.04-13.23,8.2-22.02,5.75-19.81-5.54-24.45-40.52-20.58-46.44.2-.3.53-.8,1.11-.92,2.8-.6,4.98,9.06,12.77,18.16,3.02,3.51,6.18,7.24,11.64,10.04,6.71,3.43,12.16,3.05,15.49,8.1Z"/>
        <path class="cls-4" d="M146.33,54.53c.47,3.28,3.25,22.44-9.78,36.79-3.41,3.75-13.03,12.82-27.15,12.43-14.27-.4-26.88-10.29-31.48-22.78-4.27-11.61-.51-22.51.67-25.93,6.05-17.58,18.75-17.51,25.78-36.73,3.57-9.77,2.67-16.31,6.21-17.22,2.22-.57,5.52,1.25,17.28,19.29,11.59,17.77,17.38,26.66,18.47,34.15ZM123.05,90.37c9.71-4.78,15.27-17.21,12.43-20.64-1.54-1.86-5.41-.9-5.82-.79-5.03,1.31-5.79,6.32-10.58,11.64-6.86,7.63-14.68,7.82-14.29,9.79.43,2.17,10.23,3.95,18.26,0Z"/>
        <path class="cls-4" d="M93.82,124.07c1.6,4.54,6.71,18.98.9,34.37-6.24,16.54-23.39,29.64-42.8,30.17-19.2.52-32.27-11.49-36.91-16.47C-2.7,153.14,1.07,127.75,1.72,123.41c1.48-9.94,9.35-21.71,25.1-45.25,15.99-23.9,20.48-26.32,23.5-25.56,4.82,1.21,3.59,9.87,8.45,22.82,9.55,25.46,26.82,25.36,35.05,48.65ZM63.54,166.79c.54-2.08-.83-4.15-1.59-5.31-3.33-5.05-8.78-4.67-15.49-8.1-5.46-2.8-8.62-6.53-11.64-10.04-7.79-9.1-9.97-18.76-12.77-18.16-.58.12-.91.62-1.11.92-3.87,5.92.77,40.9,20.58,46.44,8.79,2.45,20.73-.71,22.02-5.75Z"/>
      </g>
      <g>
        <path class="cls-3" d="M93.82,124.07c1.6,4.54,6.71,18.98.9,34.37-6.24,16.54-23.39,29.64-42.8,30.17-19.2.52-32.27-11.49-36.91-16.47C-2.7,153.14,1.07,127.75,1.72,123.41c1.48-9.94,9.35-21.71,25.1-45.25,15.99-23.9,20.48-26.32,23.5-25.56,4.82,1.21,3.59,9.87,8.45,22.82,9.55,25.46,26.82,25.36,35.05,48.65Z"/>
        <path class="cls-2" d="M78.59,55.04c-1.18,3.42-4.94,14.32-.67,25.93,4.6,12.49,17.21,22.38,31.48,22.78,14.12.39,23.74-8.68,27.15-12.43,13.03-14.35,10.25-33.51,9.78-36.79-1.09-7.49-6.88-16.38-18.47-34.15C116.1,2.34,112.8.52,110.58,1.09c-3.54.91-2.64,7.45-6.21,17.22-7.03,19.22-19.73,19.15-25.78,36.73Z"/>
        <path class="cls-1" d="M20.94,126.1c-3.87,5.92.77,40.9,20.58,46.44,8.79,2.45,20.73-.71,22.02-5.75.54-2.08-.83-4.15-1.59-5.31-3.33-5.05-8.78-4.67-15.49-8.1-5.46-2.8-8.62-6.53-11.64-10.04-7.79-9.1-9.97-18.76-12.77-18.16-.58.12-.91.62-1.11.92Z"/>
        <path class="cls-2" d="M104.79,90.37c.43,2.17,10.23,3.95,18.26,0,9.71-4.78,15.27-17.21,12.43-20.64-1.54-1.86-5.41-.9-5.82-.79-5.03,1.31-5.79,6.32-10.58,11.64-6.86,7.63-14.68,7.82-14.29,9.79Z"/>
      </g>
    </g>
  </g>
</svg>